PathFileType	4	(X/Y/Z)	D:\TRACE\spotREDO_2-26-24\spot_justArm_Motion_3_2-v60.trc
DataRate	CameraRate	NumFrames	NumMarkers	Units	OrigDataRate	OrigDataStartFrame	OrigNumFrames
100.00	100.00	      38	9	mm	100.00	6126	      7000
Frame#	Time	front left toe			Front right toe			aft left toe			aft right toe			Arm			FL body			FR body			AL Body			AR Body			
		X1	Y1	Z1	X2	Y2	Z2	X3	Y3	Z3	X4	Y4	Z4	X5	Y5	Z5	X6	Y6	Z6	X7	Y7	Z7	X8	Y8	Z8	X9	Y9	Z9	

6126	61.250	-174.89270	36.43460	-260.54938	311.49063	35.38591	-225.85674	-209.98209	7.21786	349.19312	275.91000	6.93916	391.31073	-31.80153	747.27429	-765.24146	13.64520	563.36719	-307.37271	168.72948	567.22302	-300.63474	-30.51259	540.91931	575.58289	117.05773	540.80865	583.41547	
6127	61.260	-174.94830	36.40362	-260.52292	311.47476	35.52213	-225.73763	-210.16965	7.26560	349.20700	275.76709	6.86719	391.30313	-31.93796	747.37811	-765.20691	13.34137	563.52448	-307.21188	168.48985	567.45789	-300.53690	-30.92921	540.75659	575.59052	116.80224	540.68951	583.46429	
6128	61.270	-175.03738	36.40294	-260.51025	311.43887	35.55653	-225.68871	-210.36717	7.33381	349.19934	275.64023	6.90911	391.30521	-32.07693	747.47217	-765.19019	12.94541	563.65454	-307.14944	168.19061	567.71509	-300.38812	-31.30801	540.51117	575.57947	116.46394	540.55463	583.48431	
6129	61.280	-175.29491	36.50166	-260.45016	311.44742	35.62757	-225.60457	-210.42105	7.35477	349.21014	275.58514	6.94314	391.30347	-32.13534	747.53314	-765.15619	12.73384	563.74408	-307.05286	167.82803	567.90479	-300.25513	-31.50572	540.22461	575.67047	116.14643	540.34131	583.49597	
6130	61.290	-175.38562	36.51426	-260.45047	311.40018	35.69105	-225.52824	-210.47551	7.37475	349.21832	275.53079	6.93852	391.32480	-32.17569	747.53558	-765.15179	12.41714	563.88916	-306.95316	167.58237	568.04700	-300.16718	-32.17612	539.86212	575.49994	116.25493	540.20624	583.93005	
6131	61.300	-175.48529	36.54115	-260.44232	311.30896	35.74247	-225.52295	-210.55634	7.31834	349.25949	275.39282	7.05086	391.35126	-30.20600	747.71228	-763.53064	12.17812	563.94305	-306.87891	167.26155	568.17548	-300.14075	-32.00301	539.73431	575.84894	115.87630	539.93469	583.93835	
6132	61.310	-175.63875	36.64415	-260.43762	311.16080	35.70848	-225.51253	-210.55698	7.27492	349.28818	275.35883	7.14376	391.36511	-30.20379	747.75714	-763.45227	11.97155	563.96753	-306.82175	166.80312	568.30994	-300.15198	-32.42717	539.50232	575.84503	115.30954	539.80750	583.72424	
6133	61.320	-175.71898	36.56233	-260.44598	311.21912	35.71555	-225.47733	-210.60954	7.28313	349.24765	275.29153	7.20306	391.35645	-32.21899	747.76971	-764.95160	11.73836	563.85132	-306.88425	166.52394	568.27478	-300.15247	-32.77665	539.41913	575.81403	114.99702	539.82642	583.69043	
6134	61.330	-175.80095	36.54598	-260.47812	311.05743	35.65673	-225.49104	-210.66397	7.30207	349.26099	275.25381	7.29427	391.32681	-32.32858	748.14801	-764.49762	10.87963	563.89642	-307.38898	166.36736	568.07391	-300.20966	-33.18961	539.48755	575.74390	114.53499	539.86957	583.61517	
6135	61.340	-175.97969	36.65730	-260.50491	311.20932	35.63866	-225.40193	-210.70753	7.31687	349.22913	275.15509	7.40173	391.31213	-32.17126	748.92493	-763.10706	11.21779	563.17627	-307.10751	166.29053	567.85297	-300.39145	-33.74200	539.59344	575.52271	114.12135	539.99371	583.41028	
6136	61.350	-175.96492	36.52493	-260.53296	310.92264	35.13875	-225.67445	-210.82178	7.26106	349.20560	274.97034	7.47807	391.32208	-32.72521	749.92664	-761.03577	11.13094	562.76624	-307.48956	166.36414	567.56860	-300.51144	-34.17936	539.71490	575.23578	113.68369	540.14691	583.21405	
6137	61.360	-175.89946	36.58280	-260.54922	310.81583	35.32817	-225.52333	-210.92664	7.22167	349.18085	274.73212	7.52228	391.35345	-33.16128	751.51837	-758.42792	11.20662	562.57867	-307.85455	166.48712	567.22443	-300.78992	-34.55244	539.80780	574.99042	113.03414	540.27350	582.87421	
6138	61.370	-175.83926	36.55778	-260.59460	310.89035	35.34652	-225.45296	-211.13342	7.16097	349.10449	274.62265	7.55195	391.39285	-32.31587	753.45636	-753.82123	11.35513	562.51373	-308.13541	166.64574	567.11072	-301.08810	-35.16095	539.57751	574.54626	112.36847	540.17224	582.68958	
6139	61.380	-175.79486	36.64176	-260.57361	311.07388	35.43674	-225.35367	-211.24193	7.06717	349.13708	274.61105	7.62188	391.42563	-35.96075	755.54102	-752.61884	11.75105	562.42065	-308.42361	166.90808	567.25134	-301.28381	-35.83574	539.32898	574.18018	111.74204	539.88727	582.52527	
6140	61.390	-175.73758	36.57275	-260.66269	311.00531	35.36301	-225.38235	-211.31325	7.06635	349.08990	274.37958	7.56891	391.45779	-37.96074	757.80432	-750.06128	12.32689	562.68030	-308.78995	167.29716	567.49261	-301.47296	-36.80039	538.92896	573.39545	111.50244	539.56403	582.50037	
6141	61.400	-175.56729	36.74319	-260.66074	311.11343	35.45382	-225.36450	-211.32047	7.02686	349.10147	274.37640	7.58430	391.46982	-39.97745	760.25873	-748.01044	12.63606	563.21124	-309.02597	167.57834	567.99481	-301.48593	-36.87386	538.46405	573.47375	110.74437	538.92242	582.04578	
6142	61.410	-175.49646	36.66364	-260.72107	310.97278	35.43126	-225.38260	-211.35049	7.01255	349.14877	274.16357	7.52845	391.45361	-42.20570	762.60693	-746.77283	12.58454	563.83527	-309.27783	167.69380	568.33759	-301.23294	-37.09162	538.00745	573.27295	110.68671	538.42957	582.02069	
6143	61.420	-175.54971	36.63295	-260.67468	310.91330	35.51789	-225.38252	-211.35915	6.99268	349.18900	274.17395	7.52491	391.44830	-44.22470	764.54254	-745.27155	12.35085	564.30902	-309.15875	167.59790	569.10242	-301.64874	-36.93440	537.33917	573.31201	110.79699	537.84344	582.13379	
6144	61.430	-175.75554	36.63301	-260.68805	310.85449	35.62802	-225.42221	-211.31218	7.02487	349.18839	274.40408	7.47441	391.51239	-46.06643	766.38318	-744.84698	11.88062	565.02454	-309.00574	166.94876	569.87195	-301.59891	-36.60550	536.60126	573.33875	111.29053	537.29523	582.10120	
6145	61.440	-175.98207	36.69296	-260.60953	310.76672	35.46072	-225.73181	-211.23093	7.06307	349.25906	274.78076	7.41705	391.47458	-45.15626	767.90137	-743.32751	11.13981	565.76184	-308.86658	166.11876	570.61438	-301.73038	-36.06706	535.97522	573.40442	111.66476	536.62561	581.87561	
6146	61.450	-176.13383	36.62627	-260.60001	310.68610	35.49303	-225.98607	-211.01770	7.05425	349.40857	275.07587	7.36457	391.43942	-47.60975	768.80554	-744.80438	10.29762	566.41077	-308.67499	165.20308	571.36792	-301.84079	-35.42413	535.28552	573.65894	112.31599	536.04114	581.81366	
6147	61.460	-176.18782	36.55615	-260.52487	310.59103	35.67274	-226.25249	-210.84956	7.11410	349.51575	275.20007	7.22456	391.36615	-47.73442	769.62933	-745.23126	9.18401	567.10101	-308.47699	164.40456	571.86871	-301.58023	-34.75736	534.75067	573.92963	112.98061	535.62360	581.81378	
6148	61.470	-176.35524	36.37503	-260.41544	310.42209	35.72477	-226.46080	-210.75594	7.23731	349.60153	275.26343	7.23107	391.32916	-47.23715	769.62207	-745.78027	7.96454	567.62561	-308.18369	163.66121	572.49133	-301.53766	-34.20890	534.47028	574.02698	113.87590	535.28949	581.75507	
6149	61.480	-176.43924	36.26859	-260.30862	310.13855	35.91019	-226.64278	-210.78149	7.39349	349.56763	275.25174	7.13923	391.28665	-46.54605	769.57141	-746.43787	7.06515	568.02985	-307.99478	162.37364	573.11011	-301.80649	-33.27434	534.13629	574.43060	114.36481	535.04767	581.74823	
6150	61.490	-176.56320	36.15639	-260.20822	310.03830	35.93100	-226.84427	-210.79036	7.52416	349.52249	275.28751	7.09108	391.27182	-45.34617	769.15967	-746.96649	6.46211	568.27460	-307.82608	161.69366	573.63300	-301.83444	-33.26997	533.85693	574.32849	114.70621	534.92657	581.71558	
6151	61.500	-176.52727	36.09823	-260.18427	309.96732	36.07561	-226.81660	-210.75084	7.49345	349.56207	275.28787	7.09687	391.23523	-42.04277	768.55157	-745.94116	5.87974	568.38452	-307.77725	161.22157	573.80670	-301.81665	-32.88744	533.81415	574.69293	114.79125	534.93140	581.71759	
6152	61.510	-176.55016	36.11102	-260.18280	309.96368	35.94719	-226.84828	-210.76945	7.48030	349.58725	275.26047	7.16170	391.23392	-40.91804	767.66156	-746.73657	5.34945	568.42468	-307.76373	160.90924	573.89307	-301.80939	-33.06578	533.83020	574.72260	114.61723	534.99609	581.72174	
6153	61.520	-176.54973	36.01859	-260.20703	309.99551	35.78785	-226.79819	-210.76285	7.35751	349.62970	275.17108	7.31214	391.25372	-41.28804	766.99445	-748.44043	5.31091	568.37964	-307.78265	160.79874	573.89795	-301.81863	-33.45662	533.86853	574.73376	114.14454	535.10187	581.76184	
6154	61.530	-176.45232	35.96338	-260.30112	310.15829	35.69288	-226.68417	-210.84825	7.17577	349.71887	275.10721	7.45606	391.29681	-39.78532	765.96814	-748.65466	5.54785	568.25177	-307.89828	161.02219	573.68500	-301.46881	-34.66182	533.87567	574.47327	113.41217	535.20435	581.72363	
6155	61.540	-176.33595	36.00741	-260.40051	310.31458	35.53008	-226.67183	-211.01884	7.10998	349.66443	274.81439	7.58015	391.32471	-38.62738	765.10034	-749.01379	5.94758	568.25635	-308.01266	161.38159	573.57916	-301.40079	-35.10323	533.91235	574.24896	112.51975	535.16547	581.67267	
6156	61.550	-176.25346	36.10431	-260.56250	310.61777	35.53728	-226.36711	-211.13046	7.01767	349.53934	274.51486	7.65898	391.39374	-37.80190	764.22583	-749.06183	6.53268	568.17004	-308.22034	161.69168	573.71399	-301.68146	-36.14563	534.14447	574.03406	111.47383	535.30212	581.71350	
6157	61.560	-176.17496	36.20151	-260.69101	310.89151	35.38817	-226.21428	-211.19576	6.96819	349.48917	274.49518	7.82495	391.42984	-37.44430	763.81299	-749.33966	7.08569	568.16431	-308.48901	162.15401	573.58752	-301.72745	-37.06717	534.25427	573.78693	110.86440	535.40894	582.11108	
6158	61.570	-175.93736	36.30307	-260.73636	311.10123	35.38544	-226.00847	-211.18904	6.94691	349.42429	274.16489	7.77176	391.35962	-37.26814	763.16388	-749.23804	7.72413	568.00018	-308.77878	163.04668	573.37128	-301.66818	-37.76363	534.35980	573.65973	110.25188	535.45685	582.17084	
6159	61.580	-175.57399	36.29216	-260.77786	311.38370	35.65739	-225.76526	-211.08562	6.87790	349.41730	274.40988	7.86540	391.42206	-37.67202	762.64276	-749.28809	8.19695	567.94958	-309.07034	163.81773	573.13898	-301.57828	-38.46348	534.33514	573.38568	109.24123	535.50531	581.71832	
6160	61.590	-175.39020	36.25880	-260.82535	311.39319	35.45355	-225.84636	-211.00388	6.84709	349.39139	274.66116	7.96103	391.48105	-37.93895	762.30646	-749.05231	8.93560	567.71436	-309.23813	164.12575	573.04657	-301.59598	-39.32019	534.20276	572.95258	108.63354	535.43164	581.67865	
6161	61.600	-175.17801	36.35286	-260.83362	311.46515	35.31267	-225.90413	-210.89403	6.84070	349.37921	274.86368	7.99400	391.52914	-38.41462	762.20068	-748.95447	9.31752	567.65387	-309.36383	164.63893	572.99854	-301.60388	-39.34997	534.13123	573.05725	108.20744	535.33728	581.62799	
6162	61.610	-175.07880	36.39205	-260.81747	311.45633	35.29882	-225.90930	-210.86270	6.85513	349.38776	274.93839	7.97294	391.58234	-39.51250	762.14203	-748.71039	9.70384	567.59332	-309.50638	165.05893	572.95612	-301.64291	-39.41802	534.07178	572.98663	108.06784	535.18494	581.57703	
6163	61.620	-175.00972	36.30332	-260.87674	311.45831	35.31744	-225.91914	-210.79611	6.82791	349.41394	274.91708	7.91055	391.54074	-40.64304	762.09113	-748.41473	9.95280	567.50378	-309.57892	165.22374	572.92603	-301.72650	-39.46961	533.95624	572.81866	108.13416	535.11426	581.50690	
